<?xml version="1.0" encoding="UTF-8"?>
<svg width="50px" height="62px" viewBox="0 0 50 62" version="1.1" xmlns="http://www.w3.org/2000/svg" xmlns:xlink="http://www.w3.org/1999/xlink">
    <!-- Generator: Sketch 51 (57462) - http://www.bohemiancoding.com/sketch -->
    <title>csv-svgrepo-com</title>
    <desc>Created with Sketch.</desc>
    <defs></defs>
    <g id="Page-1" stroke="none" stroke-width="1" fill="none" fill-rule="evenodd">
        <g id="homepage/data-extracts/csv" transform="translate(-10.000000, 0.000000)" fill="#000000" fill-rule="nonzero">
            <g id="csv-svgrepo-com" transform="translate(10.000000, 0.000000)">
                <rect id="Rectangle-path" x="29.3250282" y="30.1269467" width="6.55236991" height="2.9153605"></rect>
                <rect id="Rectangle-path" x="13.5257179" y="25.7890846" width="6.55236991" height="2.9153605"></rect>
                <rect id="Rectangle-path" x="29.3250282" y="25.7890846" width="6.55236991" height="2.9153605"></rect>
                <rect id="Rectangle-path" x="29.3250282" y="17.1137492" width="6.55236991" height="2.9153605"></rect>
                <rect id="Rectangle-path" x="29.3250282" y="21.4514169" width="6.55236991" height="2.9153605"></rect>
                <rect id="Rectangle-path" x="13.5257179" y="30.1269467" width="6.55236991" height="2.9153605"></rect>
                <polygon id="Shape" points="15.5660815 24.034815 15.5660815 24.0346207 16.7703197 22.0830784 17.9873856 24.0346207 19.9387335 24.0346207 17.8122696 20.9729091 19.7894671 17.7914734 17.8635799 17.7914734 16.7788715 19.7218307 15.6515987 17.7914734 13.7811034 17.7914734 15.7283699 20.8405517 13.6572978 24.034815"></polygon>
                <path d="M32.8502821,48.494884 C32.784395,48.7417179 32.7084013,49.0808715 32.6221066,49.5125392 C32.5356176,49.9444013 32.4780878,50.3041567 32.4493229,50.5921944 C32.4246395,50.1931787 32.2847022,49.4861066 32.0298997,48.4702006 L30.8023386,43.8991097 L28.0634545,43.8991097 L31.0058307,52.9174859 L33.8743511,52.9174859 L36.8289718,43.8991097 L34.102721,43.8991097 L32.8502821,48.494884 Z" id="Shape"></path>
                <rect id="Rectangle-path" x="21.4681317" y="21.4514169" width="6.55236991" height="2.9153605"></rect>
                <rect id="Rectangle-path" x="21.4681317" y="17.1137492" width="6.55236991" height="2.9153605"></rect>
                <path d="M48.8126583,10.2471034 L38.9927524,0.427003135 C38.7194859,0.15354232 38.3488464,0 37.9620752,0 L1.62132915,0 C0.81630094,0 0.163648903,0.652652038 0.163648903,1.45768025 L0.163648903,60.3845016 C0.163648903,61.1895298 0.81630094,61.8421818 1.62132915,61.8421818 L47.7819812,61.8421818 C48.5870094,61.8421818 49.2396614,61.1895298 49.2396614,60.3845016 L49.2396614,11.2775862 C49.2396614,10.8910094 49.0861191,10.5203699 48.8126583,10.2471034 Z M39.4197555,4.97671473 L44.2627524,9.81990596 L39.4197555,9.81990596 L39.4197555,4.97671473 Z M3.0790094,2.9153605 L36.504395,2.9153605 L36.504395,4.91005016 L3.0790094,4.91005016 L3.0790094,2.9153605 Z M3.0790094,58.9268213 L3.0790094,7.82541066 L36.504395,7.82541066 L36.504395,11.2777806 C36.504395,12.0830031 37.157047,12.7354608 37.9620752,12.7354608 L46.3241066,12.7354608 L46.3241066,58.9268213 L3.0790094,58.9268213 Z" id="Shape"></path>
                <rect id="Rectangle-path" x="21.4681317" y="25.7890846" width="6.55236991" height="2.9153605"></rect>
                <path d="M17.5644639,45.7680502 C17.9471536,45.7680502 18.3047712,45.8214984 18.6378997,45.9285893 C18.9708339,46.0354859 19.3041567,46.1670658 19.6370909,46.3233292 L20.3836176,44.4048276 C19.4954044,43.9811285 18.5640439,43.769279 17.5891473,43.769279 C16.6968527,43.769279 15.9205893,43.9597492 15.2607461,44.3401066 C14.6007085,44.7204639 14.0947962,45.2642759 13.7432038,45.9717367 C13.3914169,46.6791975 13.2157179,47.4993856 13.2157179,48.432884 C13.2157179,49.9259373 13.5785831,51.0670094 14.3045078,51.856489 C15.0302382,52.646163 16.0739373,53.0409028 17.4350219,53.0409028 C18.3850408,53.0409028 19.236326,52.8743386 19.9888777,52.5414044 L19.9888777,50.4808276 C19.6104639,50.6372853 19.2341881,50.7708088 18.8600502,50.8817868 C18.4857179,50.9927649 18.0991411,51.0483511 17.7003197,51.0483511 C16.3800502,51.0483511 15.7202069,50.1807398 15.7202069,48.4453229 C15.7202069,47.610558 15.8826897,46.9555737 16.2074608,46.4805643 C16.5324263,46.0057492 16.9848903,45.7680502 17.5644639,45.7680502 Z" id="Shape"></path>
                <path d="M25.5715987,47.5386458 C24.7613229,47.1685893 24.2647398,46.9135925 24.0818495,46.7736552 C23.8987649,46.6339122 23.8074169,46.4757053 23.8074169,46.2988401 C23.8070282,46.1342194 23.8789404,45.9964201 24.0231536,45.885442 C24.1669781,45.7744639 24.3972915,45.7188777 24.714094,45.7188777 C25.3267085,45.7188777 26.0545768,45.9122633 26.8975047,46.2988401 L27.6440313,44.4172665 C26.6734107,43.9854044 25.7214483,43.7694734 24.7881442,43.7694734 C23.7310345,43.7694734 22.9003511,44.0019248 22.296094,44.4666332 C21.6914483,44.9315361 21.3892226,45.5791348 21.3892226,46.4096238 C21.3892226,46.8537304 21.460163,47.2383636 21.6020439,47.5633292 C21.7439248,47.8882947 21.9617994,48.1759436 22.2558621,48.4268589 C22.5499248,48.6777743 22.9909216,48.9368527 23.5792414,49.204094 C24.2289781,49.4962132 24.6287712,49.6894044 24.7790094,49.7838621 C24.9288589,49.8783197 25.0380878,49.972 25.1059185,50.0645141 C25.1739436,50.1570282 25.2077618,50.2648966 25.2077618,50.3883135 C25.2077618,50.5857806 25.1232163,50.7472915 24.9547085,50.8724577 C24.7860063,50.9982069 24.5207085,51.06079 24.158815,51.06079 C23.7393918,51.06079 23.2789592,50.993931 22.7771285,50.8602132 C22.2754922,50.7266897 21.7923197,50.5404953 21.3276113,50.3020188 L21.3276113,52.4733793 C21.7676364,52.6830909 22.1911411,52.8302194 22.5983197,52.9145705 C23.0054984,52.9989216 23.5092727,53.0409028 24.1094483,53.0409028 C24.8291536,53.0409028 25.4563448,52.9205956 25.9910219,52.6801755 C26.5255047,52.4395611 26.9348213,52.1023511 27.2183887,51.6685455 C27.5023448,51.2347398 27.6442257,50.7381567 27.6442257,50.1787962 C27.6442257,49.5702633 27.49321,49.0653229 27.19079,48.6643636 C26.8885643,48.2634044 26.3488339,47.8882947 25.5715987,47.5386458 Z" id="Shape"></path>
                <rect id="Rectangle-path" x="21.4681317" y="30.1269467" width="6.55236991" height="2.9153605"></rect>
            </g>
        </g>
    </g>
</svg>