<?xml version="1.0" encoding="UTF-8"?>
<svg width="46px" height="62px" viewBox="0 0 46 62" version="1.1" xmlns="http://www.w3.org/2000/svg" xmlns:xlink="http://www.w3.org/1999/xlink">
    <!-- Generator: Sketch 51 (57462) - http://www.bohemiancoding.com/sketch -->
    <title>interface</title>
    <desc>Created with Sketch.</desc>
    <defs></defs>
    <g id="Page-1" stroke="none" stroke-width="1" fill="none" fill-rule="evenodd">
        <g id="homepage/data-extracts/dxf" transform="translate(-12.000000, 0.000000)" fill="#4A4A4A" fill-rule="nonzero">
            <g id="interface" transform="translate(12.000000, 0.000000)">
                <path d="M9.90075862,46.9982505 C9.20739383,46.9982505 8.75820327,47.0593503 8.49264973,47.1216878 L8.49264973,56.1220399 C8.75809074,56.1825771 9.18713975,56.1825771 9.57433031,56.1825771 C12.3911107,56.2039564 14.2273684,54.651706 14.2273684,51.3660436 C14.2481851,48.50898 12.5748603,46.9982505 9.90075862,46.9982505 Z" id="Shape"></path>
                <path d="M45.0197641,14.8529946 C45.0162759,14.5684247 44.9265953,14.2877931 44.7314809,14.0658984 L32.7806715,0.415658802 C32.7783085,0.412170599 32.7747078,0.410932849 32.7711071,0.407332123 C32.6998802,0.327553539 32.6180762,0.261952813 32.530196,0.204453721 C32.5040907,0.18723775 32.4779855,0.172047187 32.4506425,0.156969147 C32.3734519,0.115448276 32.2940109,0.0815789474 32.2109691,0.0565989111 C32.1884646,0.0497350272 32.1682105,0.040508167 32.145706,0.0346569873 C32.0543376,0.0133901996 31.9618439,0 31.8668748,0 L2.49800363,0 C1.15819601,0 0.0675136116,1.09090744 0.0675136116,2.43060254 L0.0675136116,59.547118 C0.0675136116,60.8876007 1.15808348,61.9777205 2.49800363,61.9777205 L42.6010889,61.9777205 C43.9421343,61.9777205 45.0315789,60.8876007 45.0315789,59.547118 L45.0315789,14.9888094 C45.0315789,14.9434628 45.02449,14.8977786 45.0197641,14.8529946 Z M15.2483993,56.8358838 C13.7998947,58.0410018 11.5954628,58.6118294 8.9012196,58.6118294 C7.28843194,58.6118294 6.14621416,58.5110091 5.3696951,58.4077132 L5.3696951,44.8964392 C6.51258802,44.7124646 8.00250091,44.6104065 9.5737677,44.6104065 C12.1864319,44.6104065 13.8805735,45.079176 15.2076661,46.080853 C16.6361416,47.1411543 17.5342976,48.8352958 17.5342976,51.2639855 C17.5348603,53.8967913 16.5754918,55.7125699 15.2483993,56.8358838 Z M26.1466715,58.4694882 L24.901833,55.9795862 C24.3915426,55.0195426 24.0651143,54.304461 23.6770236,53.5100508 L23.6360653,53.5100508 C23.3507078,54.3051361 23.0030127,55.0195426 22.5745263,55.9795862 L21.4323085,58.4694882 L17.8800799,58.4694882 L21.8598947,51.5102976 L18.0227586,44.711902 L21.5943412,44.711902 L22.7979964,47.2225082 C23.2065662,48.0592269 23.5127405,48.7326751 23.8390563,49.5081815 L23.8800145,49.5081815 C24.2063303,48.6324174 24.4716588,48.0188312 24.8187913,47.2225082 L25.9818258,44.711902 L29.5337169,44.711902 L25.6553975,51.4272559 L29.7371579,58.4694882 L26.1466715,58.4694882 Z M39.8194156,47.264029 L34.5334374,47.264029 L34.5334374,50.4076878 L39.4727332,50.4076878 L39.4727332,52.937873 L34.5334374,52.937873 L34.5334374,58.4693757 L31.4099201,58.4693757 L31.4099201,44.7123521 L39.8186279,44.7123521 L39.8186279,47.2639165 L39.8194156,47.2639165 L39.8194156,47.264029 Z M2.49800363,41.2685953 L2.49800363,2.43105263 L30.6516298,2.43105263 L30.6516298,14.8669474 C30.6516298,15.5376951 31.1951143,16.0821924 31.8668748,16.0821924 L42.6010889,16.0821924 L42.6023267,41.2685953 L2.49800363,41.2685953 Z" id="Shape"></path>
                <path d="M36.2116007,35.630196 C34.6479855,31.9196479 33.0821198,28.2090998 31.5143412,24.500127 C30.6539927,22.4651543 29.7864428,20.4351325 28.9272196,18.3995971 C27.9909183,16.1835753 27.0563049,13.9664283 26.1323811,11.7447804 C25.9306279,11.2587949 25.6280544,10.9232523 25.0916588,10.8378475 C25.0666788,10.8333466 17.1028857,10.8668784 17.0869074,10.8668784 C16.5834809,10.8606897 16.2959855,11.1529111 16.1122359,11.578922 C15.8606352,12.1651652 15.6175862,12.7546715 15.3717241,13.3421525 C14.4557895,15.532069 13.5403049,17.7201851 12.625833,19.9094265 C11.4829401,22.6442904 10.3403848,25.3785917 9.19816697,28.1134555 C9.09678403,28.3547042 8.980098,28.5923521 8.89739383,28.8410272 C8.85317241,28.9733539 8.82414156,29.0997169 8.80692559,29.2213539 L8.78824682,29.2012123 C8.78824682,29.2012123 8.7906098,29.2430708 8.79533575,29.3199238 C8.77958258,29.4984973 8.79173503,29.6649183 8.82943013,29.8169365 L10.7172232,35.0748966 C11.2860254,36.9192559 12.1434483,36.331775 13.1228457,35.9305191 C14.1031434,35.5294882 24.8554737,30.9482396 24.8554737,30.9482396 L10.7555935,30.8054483 L15.82249,30.3984537 L20.5864755,18.91 L18.4646352,12.1404102 L21.2748893,18.1573358 C21.9220073,19.6921452 22.5649619,21.2280799 23.2126425,22.7625517 C24.3762396,25.5162069 25.5434374,28.2673866 26.7046715,31.0232922 C27.6688784,33.3102033 27.756196,33.5119564 28.7162396,35.8012305 C31.2339347,35.8012305 33.750392,35.8012305 36.2675245,35.8012305 C35.9587623,35.0475535 36.5272269,36.3813975 36.2116007,35.630196 Z" id="Shape"></path>
            </g>
        </g>
    </g>
</svg>