<?xml version="1.0" encoding="UTF-8"?>
<svg width="60px" height="60px" viewBox="0 0 60 60" version="1.1" xmlns="http://www.w3.org/2000/svg" xmlns:xlink="http://www.w3.org/1999/xlink">
    <!-- Generator: Sketch 51 (57462) - http://www.bohemiancoding.com/sketch -->
    <title>Shape</title>
    <desc>Created with Sketch.</desc>
    <defs></defs>
    <g id="Page-1" stroke="none" stroke-width="1" fill="none" fill-rule="evenodd">
        <g id="homepage/data-extracts/kml" transform="translate(-5.000000, -1.000000)" fill="#4D4D4D" fill-rule="nonzero">
            <path d="M35,1 C18.4314575,1 5,14.4314575 5,31 C5,47.5685425 18.4314575,61 35,61 C42.9564947,61 50.5871121,57.8392948 56.2132034,52.2132034 C61.8392948,46.5871121 65,38.9564947 65,31 C65,14.4314575 51.5685425,1 35,1 M34.2958066,3 C47.4448939,3 58.5318204,11.8132245 62,23.867102 C61.3588555,25.1025306 60.5414899,25.9098776 59.5029107,26 C55.9334978,26 51.1305377,16.7586939 48.3634928,13.6569796 C44.2166749,9.01191837 38.5176122,4.62971429 28.4580168,4.62971429 C26.6958066,4.62971429 25.2260483,4.73110204 24,4.90008163 C27.198224,3.67591837 30.6701529,3 34.2958066,3 M21.9169001,10 C29.379085,10 34.8207283,15.718228 40.665733,21.4101912 C44.3930906,25.0534979 54.7572362,34.7152021 63,36.5312273 C62.7684407,38.0658436 62.4136321,39.5554345 61.9505135,41 C43.799253,38.8988138 26.7310924,18.2434035 17.0280112,18.2434035 C13.4164332,18.2434035 9.99159664,21.147543 7,24.1529896 C8.45658263,19.0726216 11.2689076,14.5663278 15.0149393,11.0543452 C17.0392157,10.4465021 19.3697479,10 21.9169001,10 M12.5710323,40 C17.1514356,40 30.0323862,49.1852684 47.0961092,49.1852684 C52.0206162,49.1852684 56.7501312,47.8949023 60,46.7381541 C58.6427019,48.7462385 57.0445311,50.5939816 55.2437214,52.1897597 C51.844741,53.2510667 47.2184572,54.2932854 42.1983657,54.2932854 C31.202339,54.2932854 28.2354,51.7354592 25.2531674,51.7354592 C21.8809506,51.7354592 22.4123997,54.7323153 23.2955994,57 C17.0176175,54.1024029 11.9439988,49.0821918 9,42.8403324 C9.62321014,41.3056366 10.7014019,40 12.5786791,40" id="Shape"></path>
        </g>
    </g>
</svg>