<?xml version="1.0" encoding="UTF-8"?>
<svg width="70px" height="62px" viewBox="0 0 70 62" version="1.1" xmlns="http://www.w3.org/2000/svg" xmlns:xlink="http://www.w3.org/1999/xlink">
    <!-- Generator: Sketch 51 (57462) - http://www.bohemiancoding.com/sketch -->
    <title>homepage/data-extracts/pdf</title>
    <desc>Created with Sketch.</desc>
    <defs></defs>
    <g id="homepage/data-extracts/pdf" stroke="none" stroke-width="1" fill="none" fill-rule="evenodd">
        <path d="M35.2930617,0.843854156 C36.7576779,1.43314559 36.4306614,2.32513317 35.9470945,6.51779683 C35.4496121,10.8618086 33.7971354,18.7737706 30.6069856,26.5408249 C27.4133569,34.3175398 22.6750973,41.9493469 18.5456449,47.6071887 C14.4231504,53.2585902 10.8885896,56.9328061 8.19940118,59.0516792 C5.49629715,61.1705522 3.62812873,61.7340823 2.4070354,61.9272926 C1.19637877,62.1205029 0.64671283,61.9272926 0.319696383,61.3637625 C-0.00732006323,60.8002325 -0.122123709,59.8502818 0.159667058,58.7264418 C0.434500029,57.5897212 1.09201182,56.2694508 2.95670134,54.5820808 C4.83878536,52.8850502 7.91761041,50.8144798 12.2140499,48.8759364 C16.5104894,46.9470535 22.0106277,45.1534178 26.5297167,43.9329727 C31.0488056,42.7060872 34.5694508,42.0491722 37.6517547,41.5339447 C40.7410165,41.0154971 43.3815004,40.638737 45.9663218,40.451967 C48.5581011,40.2587567 51.094218,40.2587567 53.5711937,40.451967 C56.0481693,40.638737 58.4729615,41.0154971 60.5672583,41.4792018 C62.6580762,41.952567 64.4218777,42.5193173 65.9630296,43.4177452 C67.5007027,44.3097328 68.826163,45.5366182 69.4836748,46.9019711 C70.1516233,48.2705441 70.1516233,49.7775845 69.5984784,50.8595622 C69.0488125,51.9415399 67.9425228,52.6048953 66.6796827,52.975215 C65.4168426,53.3519751 63.9835365,53.4453601 62.2753974,52.975215 C60.5672583,52.50507 58.5773284,51.4713948 56.4899894,50.0996016 C54.4026504,48.737469 52.1970288,47.0468788 49.3338955,44.4063379 C46.4707621,41.7657971 42.9431592,38.1785257 39.97218,34.69752 C37.0012008,31.210074 34.5694508,27.8192331 32.9169741,24.9468399 C31.2714551,22.0712265 30.387815,19.7172809 29.6711619,17.356895 C28.9545088,15.0029495 28.4048429,12.6490039 28.1856723,10.5301309 C27.9665017,8.40481749 28.0708686,6.521017 28.2935181,5.02363712 C28.5126887,3.51015639 28.8501419,2.38309627 29.3963289,1.62957607 C29.9459949,0.872835702 30.7217892,0.496075604 31.2714551,0.309305641 C31.8211211,0.116095335 32.1550953,0.116095335 32.4821118,0.0742331017 C32.8091282,0.0291506968 33.1361447,-0.0674544564 33.6405849,0.0742331017 C34.1206729,0.203039973 34.7607902,0.563699212 35.2930617,0.843854156 L35.2930617,0.843854156 Z" id="Shape" stroke="#4A4A4A" stroke-width="1.57"></path>
    </g>
</svg>