<?xml version="1.0" standalone="no"?>
<!DOCTYPE svg PUBLIC "-//W3C//DTD SVG 20010904//EN"
 "http://www.w3.org/TR/2001/REC-SVG-20010904/DTD/svg10.dtd">
<svg version="1.0" xmlns="http://www.w3.org/2000/svg"
 width="700.000000pt" height="700.000000pt" viewBox="0 0 700.000000 700.000000"
 preserveAspectRatio="xMidYMid meet">
<metadata>
Created by potrace 1.11, written by Peter Selinger 2001-2013
</metadata>
<g transform="translate(0.000000,700.000000) scale(0.100000,-0.100000)"
fill="#000000" stroke="none">
<path d="M3278 6995 c-2 -1 -42 -5 -89 -9 -47 -4 -95 -8 -105 -10 -10 -2 -46
-7 -79 -11 -32 -4 -68 -9 -80 -11 -11 -2 -47 -9 -80 -15 -168 -30 -528 -133
-640 -184 -16 -7 -64 -28 -105 -45 -754 -322 -1397 -944 -1760 -1703 -114
-238 -232 -588 -266 -787 -3 -14 -11 -59 -19 -100 -8 -41 -17 -97 -20 -125 -3
-27 -8 -66 -11 -85 -25 -177 -25 -659 0 -810 2 -14 8 -52 12 -85 4 -33 8 -62
9 -65 0 -3 4 -26 8 -51 46 -286 155 -621 299 -919 197 -409 498 -804 834
-1095 38 -33 71 -62 74 -65 22 -23 166 -131 255 -192 332 -227 671 -385 1055
-492 109 -30 357 -81 441 -90 31 -4 65 -8 75 -10 99 -19 531 -27 685 -13 491
44 940 174 1349 390 711 376 1274 987 1587 1722 73 171 162 437 180 535 2 14
10 50 18 80 7 30 17 75 21 100 4 25 8 47 9 50 9 42 15 86 21 135 3 33 8 69 10
80 24 125 23 642 -1 795 -2 14 -7 43 -9 65 -27 214 -114 572 -175 720 -5 11
-26 63 -46 115 -84 213 -185 405 -323 615 -72 109 -155 224 -197 272 -5 6 -28
33 -50 59 -132 160 -304 329 -481 471 -236 190 -543 375 -809 488 -16 7 -41
18 -55 24 -113 49 -418 148 -510 164 -14 3 -43 10 -65 15 -22 6 -56 14 -75 17
-19 3 -60 10 -90 15 -96 16 -174 27 -265 36 -54 6 -532 14 -537 9z m492 -356
c41 -4 95 -11 120 -13 344 -40 741 -163 1053 -329 296 -156 516 -317 757 -555
155 -153 193 -197 307 -347 195 -258 352 -551 458 -857 64 -183 131 -468 149
-633 3 -27 9 -81 13 -120 15 -140 8 -556 -11 -665 -3 -14 -7 -45 -10 -70 -5
-40 -18 -115 -30 -175 -101 -512 -342 -1000 -706 -1430 -97 -114 -304 -311
-450 -426 -142 -113 -390 -265 -566 -349 -234 -112 -520 -208 -734 -246 -14
-2 -50 -9 -80 -16 -30 -6 -68 -12 -85 -14 -16 -1 -48 -5 -70 -9 -145 -20 -510
-27 -670 -12 -146 14 -339 46 -460 77 -66 17 -130 33 -141 35 -12 3 -73 23
-136 44 -518 179 -964 476 -1332 887 -406 454 -679 1035 -761 1624 -9 63 -18
129 -21 145 -10 55 -12 519 -3 610 43 411 149 777 329 1130 113 223 272 464
402 612 132 149 199 216 364 364 193 173 529 380 814 502 176 75 488 170 630
193 196 31 203 32 290 40 41 3 76 8 78 9 8 7 435 2 502 -6z"/>
<path d="M3513 6218 l-81 -81 -77 77 -78 78 -46 -6 c-25 -3 -73 -8 -106 -12
-74 -7 -256 -42 -264 -49 -3 -3 69 -80 159 -170 l165 -165 -457 -457 -458
-457 -311 312 -312 313 -26 -23 c-14 -13 -70 -68 -124 -122 l-98 -100 313
-313 312 -313 -74 -74 c-41 -40 -305 -305 -587 -588 -556 -559 -534 -533 -519
-631 8 -47 53 -104 99 -125 36 -16 115 -15 145 1 12 7 284 274 602 592 l580
579 506 -507 506 -506 -925 -925 -926 -926 72 -73 c40 -40 96 -95 126 -121
l53 -49 333 333 c280 280 336 332 348 321 9 -6 307 -305 664 -662 l648 -650
83 6 c91 7 286 37 334 51 14 4 -169 193 -737 762 l-755 757 464 464 465 465
900 -899 c495 -495 906 -901 913 -903 8 -1 66 51 130 116 l117 119 -329 330
-330 329 458 457 457 457 182 -182 c100 -100 184 -180 186 -178 3 4 24 109 42
210 1 8 6 47 10 85 4 39 9 82 10 96 3 22 -13 43 -91 123 l-95 96 98 98 c53 53
97 100 96 103 -1 4 -5 42 -8 85 -3 44 -15 133 -27 199 -11 66 -21 126 -21 133
0 8 -87 -73 -192 -178 l-192 -191 -1080 1081 -1081 1081 174 175 c96 96 174
177 174 179 0 10 -205 37 -370 49 l-66 5 -81 -81z m2077 -2738 c0 -8 -886
-892 -902 -901 -9 -5 -357 336 -1092 1071 l-1078 1079 457 457 457 457 1079
-1079 c593 -593 1079 -1081 1079 -1084z"/>
<path d="M2197 3548 c-118 -25 -203 -119 -219 -243 -2 -13 52 -106 134 -234
133 -206 137 -212 151 -189 8 13 54 84 102 158 170 262 158 238 151 286 -19
144 -175 253 -319 222z m95 -127 c95 -37 109 -168 23 -221 -79 -49 -175 -2
-190 92 -13 84 86 161 167 129z"/>
</g>
</svg>
